<?xml version="1.0" standalone="no"?><!DOCTYPE svg PUBLIC "-//W3C//DTD SVG 1.1//EN" "http://www.w3.org/Graphics/SVG/1.1/DTD/svg11.dtd"><svg t="1709206983722" class="icon" viewBox="0 0 1024 1024" version="1.1" xmlns="http://www.w3.org/2000/svg" p-id="3832" xmlns:xlink="http://www.w3.org/1999/xlink" width="200" height="200"><path d="M942.08 963.85024h-61.56288V1024H942.08v-60.14976zM942.08 903.49568h-61.56288v60.35456H942.08v-60.35456zM942.08 843.3664h-61.56288v60.12928H942.08V843.3664zM942.08 783.19616h-61.56288v60.14976H942.08v-60.14976zM942.08 722.82112h-61.56288v60.35456H942.08v-60.35456z" fill="#000000" p-id="3833"></path><path d="M942.08 662.69184h-61.56288v60.14976H942.08v-60.14976zM942.08 602.3168h-61.56288v60.37504H942.08V602.3168zM942.08 542.16704h-61.56288v60.14976H942.08v-60.14976z" fill="#000000" p-id="3834"></path><path d="M942.08 482.03776h-61.56288v60.14976H942.08v-60.14976zM942.08 421.6832h-61.56288v60.33408H942.08V421.6832zM942.08 361.51296h-61.56288v60.17024H942.08v-60.17024zM942.08 301.1584h-61.56288v60.35456H942.08v-60.35456zM880.51712 963.85024H819.2V1024h61.3376v-60.14976z" fill="#000000" p-id="3835"></path><path d="M880.51712 903.49568H819.2v60.35456h61.3376v-60.35456zM880.51712 843.3664H819.2v60.12928h61.3376V843.3664zM880.51712 783.19616H819.2v60.14976h61.3376v-60.14976zM880.51712 722.82112H819.2v60.35456h61.3376v-60.35456z" fill="#E1E3FA" p-id="3836"></path><path d="M880.51712 662.69184H819.2v60.14976h61.3376v-60.14976zM880.51712 602.3168H819.2v60.37504h61.3376V602.3168zM880.51712 542.16704H819.2v60.14976h61.3376v-60.14976z" fill="#E1E3FA" p-id="3837"></path><path d="M880.51712 482.03776H819.2v60.14976h61.3376v-60.14976zM880.51712 421.6832H819.2v60.33408h61.3376V421.6832zM880.51712 361.51296H819.2v60.17024h61.3376v-60.17024z" fill="#E1E3FA" p-id="3838"></path><path d="M880.51712 301.1584H819.2v60.35456h61.3376v-60.35456zM880.51712 241.00864H819.2v60.14976h61.3376v-60.14976zM819.17952 963.85024h-61.56288V1024h61.56288v-60.14976z" fill="#000000" p-id="3839"></path><path d="M819.17952 903.49568h-61.56288v60.35456h61.56288v-60.35456zM819.17952 843.3664h-61.56288v60.12928h61.56288V843.3664zM819.17952 783.19616h-61.56288v60.14976h61.56288v-60.14976zM819.17952 722.82112h-61.56288v60.35456h61.56288v-60.35456z" fill="#E1E3FA" p-id="3840"></path><path d="M819.17952 662.69184h-61.56288v60.14976h61.56288v-60.14976zM819.17952 602.3168h-61.56288v60.37504h61.56288V602.3168zM819.17952 542.16704h-61.56288v60.14976h61.56288v-60.14976z" fill="#E1E3FA" p-id="3841"></path><path d="M819.17952 482.03776h-61.56288v60.14976h61.56288v-60.14976zM819.17952 421.6832h-61.56288v60.33408h61.56288V421.6832zM819.17952 361.51296h-61.56288v60.17024h61.56288v-60.17024z" fill="#E1E3FA" p-id="3842"></path><path d="M819.17952 301.1584h-61.56288v60.35456h61.56288v-60.35456z" fill="#000000" p-id="3843"></path><path d="M819.17952 241.00864h-61.56288v60.14976h61.56288v-60.14976z" fill="#E1E3FA" p-id="3844"></path><path d="M819.17952 180.85888h-61.56288v60.14976h61.56288V180.85888zM757.61664 963.85024h-61.35808V1024h61.35808v-60.14976z" fill="#000000" p-id="3845"></path><path d="M757.61664 903.49568h-61.35808v60.35456h61.35808v-60.35456zM757.61664 843.3664h-61.35808v60.12928h61.35808V843.3664zM757.61664 783.19616h-61.35808v60.14976h61.35808v-60.14976zM757.61664 722.82112h-61.35808v60.35456h61.35808v-60.35456z" fill="#E1E3FA" p-id="3846"></path><path d="M757.61664 662.69184h-61.35808v60.14976h61.35808v-60.14976zM757.61664 602.3168h-61.35808v60.37504h61.35808V602.3168zM757.61664 542.16704h-61.35808v60.14976h61.35808v-60.14976z" fill="#E1E3FA" p-id="3847"></path><path d="M757.61664 482.03776h-61.35808v60.14976h61.35808v-60.14976zM757.61664 421.6832h-61.35808v60.33408h61.35808V421.6832zM757.61664 361.51296h-61.35808v60.17024h61.35808v-60.17024z" fill="#E1E3FA" p-id="3848"></path><path d="M757.61664 301.1584h-61.35808v60.35456h61.35808v-60.35456z" fill="#000000" p-id="3849"></path><path d="M757.61664 241.00864h-61.35808v60.14976h61.35808v-60.14976zM757.61664 180.85888h-61.35808v60.14976h61.35808V180.85888z" fill="#E1E3FA" p-id="3850"></path><path d="M757.61664 120.50432h-61.35808V180.8384h61.35808V120.50432zM757.61664 60.35456h-61.35808v60.14976h61.35808V60.35456zM757.61664 0h-61.35808v60.35456h61.35808V0zM696.25856 963.85024h-61.3376V1024h61.3376v-60.14976z" fill="#000000" p-id="3851"></path><path d="M696.25856 903.49568h-61.3376v60.35456h61.3376v-60.35456zM696.25856 843.3664h-61.3376v60.12928h61.3376V843.3664zM696.25856 783.19616h-61.3376v60.14976h61.3376v-60.14976zM696.25856 722.82112h-61.3376v60.35456h61.3376v-60.35456z" fill="#E1E3FA" p-id="3852"></path><path d="M696.25856 662.69184h-61.3376v60.14976h61.3376v-60.14976zM696.25856 602.3168h-61.3376v60.37504h61.3376V602.3168zM696.25856 542.16704h-61.3376v60.14976h61.3376v-60.14976z" fill="#E1E3FA" p-id="3853"></path><path d="M696.25856 482.03776h-61.3376v60.14976h61.3376v-60.14976zM696.25856 421.6832h-61.3376v60.33408h61.3376V421.6832zM696.25856 361.51296h-61.3376v60.17024h61.3376v-60.17024z" fill="#E1E3FA" p-id="3854"></path><path d="M696.25856 301.1584h-61.3376v60.35456h61.3376v-60.35456z" fill="#000000" p-id="3855"></path><path d="M696.25856 241.00864h-61.3376v60.14976h61.3376v-60.14976z" fill="#E1E3FA" p-id="3856"></path><path d="M696.25856 180.85888h-61.3376v60.14976h61.3376V180.85888zM696.25856 120.50432h-61.3376V180.8384h61.3376V120.50432zM696.25856 0h-61.3376v60.35456h61.3376V0zM634.90048 963.85024h-61.5424V1024H634.88v-60.14976z" fill="#000000" p-id="3857"></path><path d="M634.90048 903.49568h-61.5424v60.35456H634.88v-60.35456zM634.90048 843.3664h-61.5424v60.12928H634.88V843.3664zM634.90048 783.19616h-61.5424v60.14976H634.88v-60.14976zM634.90048 722.82112h-61.5424v60.35456H634.88v-60.35456z" fill="#E1E3FA" p-id="3858"></path><path d="M634.90048 662.69184h-61.5424v60.14976H634.88v-60.14976zM634.90048 602.3168h-61.5424v60.37504H634.88V602.3168zM634.90048 542.16704h-61.5424v60.14976H634.88v-60.14976z" fill="#E1E3FA" p-id="3859"></path><path d="M634.90048 482.03776h-61.5424v60.14976H634.88v-60.14976zM634.90048 421.6832h-61.5424v60.33408H634.88V421.6832zM634.90048 361.51296h-61.5424v60.17024H634.88v-60.17024z" fill="#E1E3FA" p-id="3860"></path><path d="M634.90048 301.1584h-61.5424v60.35456H634.88v-60.35456zM634.90048 241.00864h-61.5424v60.14976H634.88v-60.14976z" fill="#000000" p-id="3861"></path><path d="M634.90048 180.85888h-61.5424v60.14976H634.88V180.85888z" fill="#FFFFFF" p-id="3862"></path><path d="M634.90048 120.50432h-61.5424V180.8384H634.88V120.50432zM634.90048 0h-61.5424v60.35456H634.88V0zM573.35808 963.85024H512V1024h61.35808v-60.14976zM573.35808 903.49568H512v60.35456h61.35808v-60.35456zM573.35808 843.3664H512v60.12928h61.35808V843.3664zM573.35808 783.19616H512v60.14976h61.35808v-60.14976zM573.35808 722.82112H512v60.35456h61.35808v-60.35456z" fill="#000000" p-id="3863"></path><path d="M573.35808 662.69184H512v60.14976h61.35808v-60.14976zM573.35808 602.3168H512v60.37504h61.35808V602.3168zM573.35808 542.16704H512v60.14976h61.35808v-60.14976z" fill="#000000" p-id="3864"></path><path d="M573.35808 482.03776H512v60.14976h61.35808v-60.14976zM573.35808 421.6832H512v60.33408h61.35808V421.6832zM573.35808 361.51296H512v60.17024h61.35808v-60.17024zM573.35808 301.1584H512v60.35456h61.35808v-60.35456z" fill="#000000" p-id="3865"></path><path d="M573.35808 241.00864H512v60.14976h61.35808v-60.14976zM573.35808 180.85888H512v60.14976h61.35808V180.85888z" fill="#FFFFFF" p-id="3866"></path><path d="M573.35808 120.50432H512V180.8384h61.35808V120.50432zM573.35808 0H512v60.35456h61.35808V0zM512 963.85024h-61.56288V1024H512v-60.14976z" fill="#000000" p-id="3867"></path><path d="M512 903.49568h-61.56288v60.35456H512v-60.35456zM512 843.3664h-61.56288v60.12928H512V843.3664zM512 783.19616h-61.56288v60.14976H512v-60.14976zM512 722.82112h-61.56288v60.35456H512v-60.35456z" fill="#FFFFFF" p-id="3868"></path><path d="M512 662.69184h-61.56288v60.14976H512v-60.14976zM512 602.3168h-61.56288v60.37504H512V602.3168zM512 542.16704h-61.56288v60.14976H512v-60.14976z" fill="#FFFFFF" p-id="3869"></path><path d="M512 482.03776h-61.56288v60.14976H512v-60.14976zM512 421.6832h-61.56288v60.33408H512V421.6832zM512 361.51296h-61.56288v60.17024H512v-60.17024z" fill="#FFFFFF" p-id="3870"></path><path d="M512 301.1584h-61.56288v60.35456H512v-60.35456z" fill="#000000" p-id="3871"></path><path d="M512 241.00864h-61.56288v60.14976H512v-60.14976zM512 180.85888h-61.56288v60.14976H512V180.85888z" fill="#FFFFFF" p-id="3872"></path><path d="M512 120.50432h-61.56288V180.8384H512V120.50432zM512 0h-61.56288v60.35456H512V0zM450.43712 963.85024H389.12V1024h61.3376v-60.14976z" fill="#000000" p-id="3873"></path><path d="M450.43712 903.49568H389.12v60.35456h61.3376v-60.35456zM450.43712 843.3664H389.12v60.12928h61.3376V843.3664zM450.43712 783.19616H389.12v60.14976h61.3376v-60.14976zM450.43712 722.82112H389.12v60.35456h61.3376v-60.35456z" fill="#FFFFFF" p-id="3874"></path><path d="M450.43712 662.69184H389.12v60.14976h61.3376v-60.14976zM450.43712 602.3168H389.12v60.37504h61.3376V602.3168zM450.43712 542.16704H389.12v60.14976h61.3376v-60.14976z" fill="#FFFFFF" p-id="3875"></path><path d="M450.43712 482.03776H389.12v60.14976h61.3376v-60.14976zM450.43712 421.6832H389.12v60.33408h61.3376V421.6832zM450.43712 361.51296H389.12v60.17024h61.3376v-60.17024z" fill="#FFFFFF" p-id="3876"></path><path d="M450.43712 301.1584H389.12v60.35456h61.3376v-60.35456z" fill="#000000" p-id="3877"></path><path d="M450.43712 241.00864H389.12v60.14976h61.3376v-60.14976zM450.43712 180.85888H389.12v60.14976h61.3376V180.85888z" fill="#FFFFFF" p-id="3878"></path><path d="M450.43712 120.50432H389.12V180.8384h61.3376V120.50432zM450.43712 0H389.12v60.35456h61.3376V0zM389.09952 963.85024h-61.35808V1024h61.35808v-60.14976z" fill="#000000" p-id="3879"></path><path d="M389.09952 903.49568h-61.35808v60.35456h61.35808v-60.35456zM389.09952 843.3664h-61.35808v60.12928h61.35808V843.3664zM389.09952 783.19616h-61.35808v60.14976h61.35808v-60.14976zM389.09952 722.82112h-61.35808v60.35456h61.35808v-60.35456z" fill="#FFFFFF" p-id="3880"></path><path d="M389.09952 662.69184h-61.35808v60.14976h61.35808v-60.14976zM389.09952 602.3168h-61.35808v60.37504h61.35808V602.3168zM389.09952 542.16704h-61.35808v60.14976h61.35808v-60.14976z" fill="#FFFFFF" p-id="3881"></path><path d="M389.09952 482.03776h-61.35808v60.14976h61.35808v-60.14976zM389.09952 421.6832h-61.35808v60.33408h61.35808V421.6832zM389.09952 361.51296h-61.35808v60.17024h61.35808v-60.17024z" fill="#FFFFFF" p-id="3882"></path><path d="M389.09952 301.1584h-61.35808v60.35456h61.35808v-60.35456z" fill="#000000" p-id="3883"></path><path d="M389.09952 241.00864h-61.35808v60.14976h61.35808v-60.14976zM389.09952 180.85888h-61.35808v60.14976h61.35808V180.85888z" fill="#FFFFFF" p-id="3884"></path><path d="M389.09952 120.50432h-61.35808V180.8384h61.35808V120.50432zM389.09952 0h-61.35808v60.35456h61.35808V0zM327.74144 963.85024h-61.56288V1024h61.56288v-60.14976z" fill="#000000" p-id="3885"></path><path d="M327.74144 903.49568h-61.56288v60.35456h61.56288v-60.35456zM327.74144 843.3664h-61.56288v60.12928h61.56288V843.3664zM327.74144 783.19616h-61.56288v60.14976h61.56288v-60.14976zM327.74144 722.82112h-61.56288v60.35456h61.56288v-60.35456z" fill="#FFFFFF" p-id="3886"></path><path d="M327.74144 662.69184h-61.56288v60.14976h61.56288v-60.14976zM327.74144 602.3168h-61.56288v60.37504h61.56288V602.3168zM327.74144 542.16704h-61.56288v60.14976h61.56288v-60.14976z" fill="#FFFFFF" p-id="3887"></path><path d="M327.74144 482.03776h-61.56288v60.14976h61.56288v-60.14976zM327.74144 421.6832h-61.56288v60.33408h61.56288V421.6832zM327.74144 361.51296h-61.56288v60.17024h61.56288v-60.17024z" fill="#FFFFFF" p-id="3888"></path><path d="M327.74144 301.1584h-61.56288v60.35456h61.56288v-60.35456z" fill="#000000" p-id="3889"></path><path d="M327.74144 241.00864h-61.56288v60.14976h61.56288v-60.14976zM327.74144 180.85888h-61.56288v60.14976h61.56288V180.85888z" fill="#FFFFFF" p-id="3890"></path><path d="M327.74144 120.50432h-61.56288V180.8384h61.56288V120.50432zM327.74144 60.35456h-61.56288v60.14976h61.56288V60.35456zM327.74144 0h-61.56288v60.35456h61.56288V0zM266.17856 963.85024h-61.3376V1024h61.3376v-60.14976z" fill="#000000" p-id="3891"></path><path d="M266.17856 903.49568h-61.3376v60.35456h61.3376v-60.35456zM266.17856 843.3664h-61.3376v60.12928h61.3376V843.3664zM266.17856 783.19616h-61.3376v60.14976h61.3376v-60.14976zM266.17856 722.82112h-61.3376v60.35456h61.3376v-60.35456z" fill="#FFFFFF" p-id="3892"></path><path d="M266.17856 662.69184h-61.3376v60.14976h61.3376v-60.14976zM266.17856 602.3168h-61.3376v60.37504h61.3376V602.3168zM266.17856 542.16704h-61.3376v60.14976h61.3376v-60.14976z" fill="#FFFFFF" p-id="3893"></path><path d="M266.17856 482.03776h-61.3376v60.14976h61.3376v-60.14976zM266.17856 421.6832h-61.3376v60.33408h61.3376V421.6832zM266.17856 361.51296h-61.3376v60.17024h61.3376v-60.17024z" fill="#FFFFFF" p-id="3894"></path><path d="M266.17856 301.1584h-61.3376v60.35456h61.3376v-60.35456z" fill="#000000" p-id="3895"></path><path d="M266.17856 241.00864h-61.3376v60.14976h61.3376v-60.14976z" fill="#FFFFFF" p-id="3896"></path><path d="M266.17856 180.85888h-61.3376v60.14976h61.3376V180.85888zM204.82048 963.85024H143.27808V1024H204.8v-60.14976z" fill="#000000" p-id="3897"></path><path d="M204.82048 903.49568H143.27808v60.35456H204.8v-60.35456zM204.82048 843.3664H143.27808v60.12928H204.8V843.3664zM204.82048 783.19616H143.27808v60.14976H204.8v-60.14976zM204.82048 722.82112H143.27808v60.35456H204.8v-60.35456z" fill="#FFFFFF" p-id="3898"></path><path d="M204.82048 662.69184H143.27808v60.14976H204.8v-60.14976zM204.82048 602.3168H143.27808v60.37504H204.8V602.3168zM204.82048 542.16704H143.27808v60.14976H204.8v-60.14976z" fill="#FFFFFF" p-id="3899"></path><path d="M204.82048 482.03776H143.27808v60.14976H204.8v-60.14976zM204.82048 421.6832H143.27808v60.33408H204.8V421.6832zM204.82048 361.51296H143.27808v60.17024H204.8v-60.17024z" fill="#FFFFFF" p-id="3900"></path><path d="M204.82048 301.1584H143.27808v60.35456H204.8v-60.35456zM204.82048 241.00864H143.27808v60.14976H204.8v-60.14976zM143.27808 963.85024H81.92V1024h61.35808v-60.14976zM143.27808 903.49568H81.92v60.35456h61.35808v-60.35456zM143.27808 843.3664H81.92v60.12928h61.35808V843.3664zM143.27808 783.19616H81.92v60.14976h61.35808v-60.14976zM143.27808 722.82112H81.92v60.35456h61.35808v-60.35456z" fill="#000000" p-id="3901"></path><path d="M143.27808 662.69184H81.92v60.14976h61.35808v-60.14976zM143.27808 602.3168H81.92v60.37504h61.35808V602.3168zM143.27808 542.16704H81.92v60.14976h61.35808v-60.14976z" fill="#000000" p-id="3902"></path><path d="M143.27808 482.03776H81.92v60.14976h61.35808v-60.14976zM143.27808 421.6832H81.92v60.33408h61.35808V421.6832zM143.27808 361.51296H81.92v60.17024h61.35808v-60.17024zM143.27808 301.1584H81.92v60.35456h61.35808v-60.35456z" fill="#000000" p-id="3903"></path></svg>