<?xml version="1.0" standalone="no"?><!DOCTYPE svg PUBLIC "-//W3C//DTD SVG 1.1//EN" "http://www.w3.org/Graphics/SVG/1.1/DTD/svg11.dtd"><svg t="1709206968675" class="icon" viewBox="0 0 1024 1024" version="1.1" xmlns="http://www.w3.org/2000/svg" p-id="3330" xmlns:xlink="http://www.w3.org/1999/xlink" width="200" height="200"><path d="M1003.52 850.00192h-61.56288V911.36H1003.52v-61.35808zM1003.52 788.43904h-61.56288v61.56288H1003.52v-61.56288z" fill="#000004" p-id="3331"></path><path d="M1003.52 727.08096h-61.56288v61.35808H1003.52v-61.35808zM941.95712 850.00192H880.64V911.36h61.3376v-61.35808z" fill="#000004" p-id="3332"></path><path d="M941.95712 788.43904H880.64v61.56288h61.3376v-61.56288z" fill="#49484E" p-id="3333"></path><path d="M941.95712 727.08096H880.64v61.35808h61.3376v-61.35808zM941.95712 665.4976H880.64v61.56288h61.3376v-61.56288z" fill="#000004" p-id="3334"></path><path d="M941.95712 604.16H880.64v61.35808h61.3376v-61.37856zM941.95712 542.78144H880.64v61.35808h61.3376v-61.35808zM880.61952 850.00192h-61.35808V911.36H880.64v-61.35808z" fill="#000004" p-id="3335"></path><path d="M880.61952 788.43904h-61.35808v61.56288H880.64v-61.56288z" fill="#49484E" p-id="3336"></path><path d="M880.61952 727.08096h-61.35808v61.35808H880.64v-61.35808z" fill="#000004" p-id="3337"></path><path d="M880.61952 665.4976h-61.35808v61.56288H880.64v-61.56288z" fill="#7F7E84" p-id="3338"></path><path d="M880.61952 604.16h-61.35808v61.35808H880.64v-61.37856zM880.61952 542.78144h-61.35808v61.35808H880.64v-61.35808z" fill="#BBBABF" p-id="3339"></path><path d="M880.61952 481.21856h-61.35808v61.56288H880.64v-61.56288zM880.61952 419.86048h-61.35808v61.35808H880.64v-61.35808zM819.26144 850.00192h-61.5424V911.36h61.5424v-61.35808z" fill="#000004" p-id="3340"></path><path d="M819.26144 788.43904h-61.5424v61.56288h61.5424v-61.56288z" fill="#49484E" p-id="3341"></path><path d="M819.26144 727.08096h-61.5424v61.35808h61.5424v-61.35808z" fill="#000004" p-id="3342"></path><path d="M819.26144 665.4976h-61.5424v61.56288h61.5424v-61.56288z" fill="#7F7E84" p-id="3343"></path><path d="M819.26144 604.16h-61.5424v61.35808h61.5424v-61.37856zM819.26144 542.78144h-61.5424v61.35808h61.5424v-61.35808z" fill="#ADACB2" p-id="3344"></path><path d="M819.26144 481.21856h-61.5424v61.56288h61.5424v-61.56288zM819.26144 419.86048h-61.5424v61.35808h61.5424v-61.35808z" fill="#BBBABF" p-id="3345"></path><path d="M819.26144 358.2976h-61.5424V419.84h61.5424v-61.56288zM757.71904 850.00192h-61.35808V911.36h61.35808v-61.35808z" fill="#000004" p-id="3346"></path><path d="M757.71904 788.43904h-61.35808v61.56288h61.35808v-61.56288z" fill="#49484E" p-id="3347"></path><path d="M757.71904 727.08096h-61.35808v61.35808h61.35808v-61.35808z" fill="#000004" p-id="3348"></path><path d="M757.71904 665.4976h-61.35808v61.56288h61.35808v-61.56288z" fill="#7F7E84" p-id="3349"></path><path d="M757.71904 604.16h-61.35808v61.35808h61.35808v-61.37856zM757.71904 542.78144h-61.35808v61.35808h61.35808v-61.35808zM757.71904 481.21856h-61.35808v61.56288h61.35808v-61.56288zM757.71904 419.86048h-61.35808v61.35808h61.35808v-61.35808z" fill="#ADACB2" p-id="3350"></path><path d="M757.71904 358.2976h-61.35808V419.84h61.35808v-61.56288z" fill="#BBBABF" p-id="3351"></path><path d="M757.71904 296.91904h-61.35808v61.37856h61.35808v-61.37856zM696.36096 850.00192h-61.56288V911.36h61.56288v-61.35808z" fill="#000004" p-id="3352"></path><path d="M696.36096 788.43904h-61.56288v61.56288h61.56288v-61.56288z" fill="#49484E" p-id="3353"></path><path d="M696.36096 727.08096h-61.56288v61.35808h61.56288v-61.35808z" fill="#000004" p-id="3354"></path><path d="M696.36096 665.4976h-61.56288v61.56288h61.56288v-61.56288z" fill="#7F7E84" p-id="3355"></path><path d="M696.36096 604.16h-61.56288v61.35808h61.56288v-61.37856zM696.36096 542.78144h-61.56288v61.35808h61.56288v-61.35808zM696.36096 481.21856h-61.56288v61.56288h61.56288v-61.56288zM696.36096 419.86048h-61.56288v61.35808h61.56288v-61.35808z" fill="#ADACB2" p-id="3356"></path><path d="M696.36096 358.2976h-61.56288V419.84h61.56288v-61.56288z" fill="#BBBABF" p-id="3357"></path><path d="M696.36096 296.91904h-61.56288v61.37856h61.56288v-61.37856zM634.79808 850.00192h-61.3376V911.36h61.3376v-61.35808z" fill="#000004" p-id="3358"></path><path d="M634.79808 788.43904h-61.3376v61.56288h61.3376v-61.56288z" fill="#49484E" p-id="3359"></path><path d="M634.79808 727.08096h-61.3376v61.35808h61.3376v-61.35808z" fill="#000004" p-id="3360"></path><path d="M634.79808 665.4976h-61.3376v61.56288h61.3376v-61.56288z" fill="#7F7E84" p-id="3361"></path><path d="M634.79808 604.16h-61.3376v61.35808h61.3376v-61.37856zM634.79808 542.78144h-61.3376v61.35808h61.3376v-61.35808zM634.79808 481.21856h-61.3376v61.56288h61.3376v-61.56288zM634.79808 419.86048h-61.3376v61.35808h61.3376v-61.35808zM634.79808 358.2976h-61.3376V419.84h61.3376v-61.56288z" fill="#ADACB2" p-id="3362"></path><path d="M634.79808 296.91904h-61.3376v61.37856h61.3376v-61.37856z" fill="#BBBABF" p-id="3363"></path><path d="M634.79808 235.56096h-61.3376V296.96h61.3376v-61.37856z" fill="#000004" p-id="3364"></path><path d="M634.79808 174.01856h-61.3376v61.56288h61.3376V174.01856zM634.79808 112.64h-61.3376v61.35808h61.3376V112.64zM573.44 850.00192h-61.3376V911.36h61.35808v-61.35808z" fill="#000004" p-id="3365"></path><path d="M573.44 788.43904h-61.3376v61.56288h61.35808v-61.56288z" fill="#49484E" p-id="3366"></path><path d="M573.44 727.08096h-61.3376v61.35808h61.35808v-61.35808z" fill="#000004" p-id="3367"></path><path d="M573.44 665.4976h-61.3376v61.56288h61.35808v-61.56288z" fill="#7F7E84" p-id="3368"></path><path d="M573.44 604.16h-61.3376v61.35808h61.35808v-61.37856zM573.44 542.78144h-61.3376v61.35808h61.35808v-61.35808zM573.44 481.21856h-61.3376v61.56288h61.35808v-61.56288zM573.44 419.86048h-61.3376v61.35808h61.35808v-61.35808zM573.44 358.2976h-61.3376V419.84h61.35808v-61.56288z" fill="#ADACB2" p-id="3369"></path><path d="M573.44 296.91904h-61.3376v61.37856h61.35808v-61.37856z" fill="#BBBABF" p-id="3370"></path><path d="M573.44 235.56096h-61.3376V296.96h61.35808v-61.37856z" fill="#000004" p-id="3371"></path><path d="M573.44 174.01856h-61.3376v61.56288h61.35808V174.01856z" fill="#FFFFFF" p-id="3372"></path><path d="M573.44 112.64h-61.3376v61.35808h61.35808V112.64zM512.1024 850.00192h-61.56288V911.36h61.56288v-61.35808z" fill="#000004" p-id="3373"></path><path d="M512.1024 788.43904h-61.56288v61.56288h61.56288v-61.56288z" fill="#49484E" p-id="3374"></path><path d="M512.1024 727.08096h-61.56288v61.35808h61.56288v-61.35808z" fill="#000004" p-id="3375"></path><path d="M512.1024 665.4976h-61.56288v61.56288h61.56288v-61.56288z" fill="#7F7E84" p-id="3376"></path><path d="M512.1024 604.16h-61.56288v61.35808h61.56288v-61.37856zM512.1024 542.78144h-61.56288v61.35808h61.56288v-61.35808zM512.1024 481.21856h-61.56288v61.56288h61.56288v-61.56288zM512.1024 419.86048h-61.56288v61.35808h61.56288v-61.35808zM512.1024 358.2976h-61.56288V419.84h61.56288v-61.56288z" fill="#ADACB2" p-id="3377"></path><path d="M512.1024 296.91904h-61.56288v61.37856h61.56288v-61.37856z" fill="#BBBABF" p-id="3378"></path><path d="M512.1024 235.56096h-61.56288V296.96h61.56288v-61.37856z" fill="#000004" p-id="3379"></path><path d="M512.1024 174.01856h-61.56288v61.56288h61.56288V174.01856z" fill="#FFFFFF" p-id="3380"></path><path d="M512.1024 112.64h-61.56288v61.35808h61.56288V112.64zM450.56 850.00192h-61.35808V911.36h61.3376v-61.35808z" fill="#000004" p-id="3381"></path><path d="M450.56 788.43904h-61.35808v61.56288h61.3376v-61.56288z" fill="#49484E" p-id="3382"></path><path d="M450.56 727.08096h-61.35808v61.35808h61.3376v-61.35808z" fill="#000004" p-id="3383"></path><path d="M450.56 665.4976h-61.35808v61.56288h61.3376v-61.56288z" fill="#7F7E84" p-id="3384"></path><path d="M450.56 604.16h-61.35808v61.35808h61.3376v-61.37856zM450.56 542.78144h-61.35808v61.35808h61.3376v-61.35808zM450.56 481.21856h-61.35808v61.56288h61.3376v-61.56288zM450.56 419.86048h-61.35808v61.35808h61.3376v-61.35808zM450.56 358.2976h-61.35808V419.84h61.3376v-61.56288z" fill="#ADACB2" p-id="3385"></path><path d="M450.56 296.91904h-61.35808v61.37856h61.3376v-61.37856z" fill="#BBBABF" p-id="3386"></path><path d="M450.56 235.56096h-61.35808V296.96h61.3376v-61.37856z" fill="#000004" p-id="3387"></path><path d="M450.56 174.01856h-61.35808v61.56288h61.3376V174.01856zM450.56 112.64h-61.35808v61.35808h61.3376V112.64zM389.20192 850.00192h-61.56288V911.36h61.56288v-61.35808z" fill="#000004" p-id="3388"></path><path d="M389.20192 788.43904h-61.56288v61.56288h61.56288v-61.56288z" fill="#49484E" p-id="3389"></path><path d="M389.20192 727.08096h-61.56288v61.35808h61.56288v-61.35808z" fill="#000004" p-id="3390"></path><path d="M389.20192 665.4976h-61.56288v61.56288h61.56288v-61.56288z" fill="#7F7E84" p-id="3391"></path><path d="M389.20192 604.16h-61.56288v61.35808h61.56288v-61.37856zM389.20192 542.78144h-61.56288v61.35808h61.56288v-61.35808zM389.20192 481.21856h-61.56288v61.56288h61.56288v-61.56288zM389.20192 419.86048h-61.56288v61.35808h61.56288v-61.35808zM389.20192 358.2976h-61.56288V419.84h61.56288v-61.56288z" fill="#ADACB2" p-id="3392"></path><path d="M389.20192 296.91904h-61.56288v61.37856h61.56288v-61.37856zM327.63904 850.00192h-61.35808V911.36h61.35808v-61.35808z" fill="#000004" p-id="3393"></path><path d="M327.63904 788.43904h-61.35808v61.56288h61.35808v-61.56288z" fill="#49484E" p-id="3394"></path><path d="M327.63904 727.08096h-61.35808v61.35808h61.35808v-61.35808z" fill="#000004" p-id="3395"></path><path d="M327.63904 665.4976h-61.35808v61.56288h61.35808v-61.56288z" fill="#7F7E84" p-id="3396"></path><path d="M327.63904 604.16h-61.35808v61.35808h61.35808v-61.37856zM327.63904 542.78144h-61.35808v61.35808h61.35808v-61.35808zM327.63904 481.21856h-61.35808v61.56288h61.35808v-61.56288z" fill="#ADACB2" p-id="3397"></path><path d="M327.63904 419.86048h-61.35808v61.35808h61.35808v-61.35808zM327.63904 358.2976h-61.35808V419.84h61.35808v-61.56288z" fill="#ABAAAF" p-id="3398"></path><path d="M327.63904 296.91904h-61.35808v61.37856h61.35808v-61.37856zM266.28096 850.00192h-61.3376V911.36h61.3376v-61.35808z" fill="#000004" p-id="3399"></path><path d="M266.28096 788.43904h-61.3376v61.56288h61.3376v-61.56288z" fill="#49484E" p-id="3400"></path><path d="M266.28096 727.08096h-61.3376v61.35808h61.3376v-61.35808z" fill="#000004" p-id="3401"></path><path d="M266.28096 665.4976h-61.3376v61.56288h61.3376v-61.56288z" fill="#7F7E84" p-id="3402"></path><path d="M266.28096 604.16h-61.3376v61.35808h61.3376v-61.37856zM266.28096 542.78144h-61.3376v61.35808h61.3376v-61.35808z" fill="#FFFEFF" p-id="3403"></path><path d="M266.28096 481.21856h-61.3376v61.56288h61.3376v-61.56288zM266.28096 419.86048h-61.3376v61.35808h61.3376v-61.35808z" fill="#ABAAAF" p-id="3404"></path><path d="M266.28096 358.2976h-61.3376V419.84h61.3376v-61.56288zM204.94336 850.00192H143.36V911.36h61.56288v-61.35808z" fill="#000004" p-id="3405"></path><path d="M204.94336 788.43904H143.36v61.56288h61.56288v-61.56288z" fill="#49484E" p-id="3406"></path><path d="M204.94336 727.08096H143.36v61.35808h61.56288v-61.35808z" fill="#000004" p-id="3407"></path><path d="M204.94336 665.4976H143.36v61.56288h61.56288v-61.56288z" fill="#7F7E84" p-id="3408"></path><path d="M204.94336 604.16H143.36v61.35808h61.56288v-61.37856zM204.94336 542.78144H143.36v61.35808h61.56288v-61.35808z" fill="#A9A8AD" p-id="3409"></path><path d="M204.94336 481.21856H143.36v61.56288h61.56288v-61.56288zM204.94336 419.86048H143.36v61.35808h61.56288v-61.35808zM143.38048 850.00192H82.04288V911.36H143.36v-61.35808z" fill="#000004" p-id="3410"></path><path d="M143.38048 788.43904H82.04288v61.56288H143.36v-61.56288z" fill="#49484E" p-id="3411"></path><path d="M143.38048 727.08096H82.04288v61.35808H143.36v-61.35808zM143.38048 665.4976H82.04288v61.56288H143.36v-61.56288z" fill="#000004" p-id="3412"></path><path d="M143.38048 604.16H82.04288v61.35808H143.36v-61.37856zM143.38048 542.78144H82.04288v61.35808H143.36v-61.35808zM82.04288 850.00192H20.48V911.36h61.56288v-61.35808zM82.04288 788.43904H20.48v61.56288h61.56288v-61.56288z" fill="#000004" p-id="3413"></path><path d="M82.04288 727.08096H20.48v61.35808h61.56288v-61.35808z" fill="#000004" p-id="3414"></path></svg>