<?xml version="1.0" standalone="no"?><!DOCTYPE svg PUBLIC "-//W3C//DTD SVG 1.1//EN" "http://www.w3.org/Graphics/SVG/1.1/DTD/svg11.dtd"><svg t="1709206977319" class="icon" viewBox="0 0 1024 1024" version="1.1" xmlns="http://www.w3.org/2000/svg" p-id="3571" xmlns:xlink="http://www.w3.org/1999/xlink" width="200" height="200"><path d="M1024 819.15904h-60.14976v61.56288H1024V819.2z" fill="#000002" p-id="3572"></path><path d="M1024 757.82144h-60.14976v61.35808H1024v-61.35808zM1024 696.46336h-60.14976v61.35808H1024v-61.35808zM1024 634.92096h-60.14976v61.5424H1024v-61.5424zM963.85024 880.72192h-60.35456V942.08h60.35456v-61.35808z" fill="#000002" p-id="3573"></path><path d="M963.85024 819.15904h-60.35456v61.56288h60.35456V819.2z" fill="#FFFFFF" p-id="3574"></path><path d="M963.85024 757.82144h-60.35456v61.35808h60.35456v-61.35808zM963.85024 696.46336h-60.35456v61.35808h60.35456v-61.35808zM963.85024 634.92096h-60.35456v61.5424h60.35456v-61.5424z" fill="#FFFFFF" p-id="3575"></path><path d="M963.85024 573.5424h-60.35456v61.35808h60.35456v-61.35808z" fill="#000002" p-id="3576"></path><path d="M963.85024 512h-60.35456v61.56288h60.35456V512zM963.85024 450.64192h-60.35456V512h60.35456v-61.35808zM903.49568 880.72192H843.3664V942.08h60.14976v-61.35808z" fill="#000002" p-id="3577"></path><path d="M903.49568 819.15904H843.3664v61.56288h60.14976V819.2z" fill="#FFFFFF" p-id="3578"></path><path d="M903.49568 757.82144H843.3664v61.35808h60.14976v-61.35808zM903.49568 696.46336H843.3664v61.35808h60.14976v-61.35808zM903.49568 634.92096H843.3664v61.5424h60.14976v-61.5424zM903.49568 573.5424H843.3664v61.35808h60.14976v-61.35808z" fill="#FFFFFF" p-id="3579"></path><path d="M903.49568 512H843.3664v61.56288h60.14976V512zM903.49568 450.64192H843.3664V512h60.14976v-61.35808z" fill="#FFFFFF" p-id="3580"></path><path d="M903.49568 389.28384H843.3664v61.35808h60.14976v-61.35808z" fill="#000002" p-id="3581"></path><path d="M903.49568 327.74144H843.3664v61.56288h60.14976v-61.56288zM843.34592 880.72192h-60.14976V942.08h60.14976v-61.35808z" fill="#000002" p-id="3582"></path><path d="M843.34592 819.15904h-60.14976v61.56288h60.14976V819.2z" fill="#FFFFFF" p-id="3583"></path><path d="M843.34592 757.82144h-60.14976v61.35808h60.14976v-61.35808zM843.34592 696.46336h-60.14976v61.35808h60.14976v-61.35808zM843.34592 634.92096h-60.14976v61.5424h60.14976v-61.5424zM843.34592 573.5424h-60.14976v61.35808h60.14976v-61.35808z" fill="#FFFFFF" p-id="3584"></path><path d="M843.34592 512h-60.14976v61.56288h60.14976V512zM843.34592 450.64192h-60.14976V512h60.14976v-61.35808zM843.34592 389.28384h-60.14976v61.35808h60.14976v-61.35808z" fill="#FFFFFF" p-id="3585"></path><path d="M843.34592 327.74144h-60.14976v61.56288h60.14976v-61.56288z" fill="#FFFFFF" p-id="3586"></path><path d="M843.34592 266.38336h-60.14976v61.35808h60.14976v-61.35808zM783.19616 880.72192h-60.35456V942.08h60.35456v-61.35808zM783.19616 819.15904h-60.35456v61.56288h60.35456V819.2z" fill="#000002" p-id="3587"></path><path d="M783.19616 757.82144h-60.35456v61.35808h60.35456v-61.35808zM783.19616 696.46336h-60.35456v61.35808h60.35456v-61.35808zM783.19616 634.92096h-60.35456v61.5424h60.35456v-61.5424zM783.19616 573.5424h-60.35456v61.35808h60.35456v-61.35808z" fill="#000002" p-id="3588"></path><path d="M783.19616 512h-60.35456v61.56288h60.35456V512z" fill="#000002" p-id="3589"></path><path d="M783.19616 450.64192h-60.35456V512h60.35456v-61.35808zM783.19616 389.28384h-60.35456v61.35808h60.35456v-61.35808z" fill="#FFFFFF" p-id="3590"></path><path d="M783.19616 327.74144h-60.35456v61.56288h60.35456v-61.56288zM783.19616 266.38336h-60.35456v61.35808h60.35456v-61.35808z" fill="#FFFFFF" p-id="3591"></path><path d="M783.19616 204.84096h-60.35456v61.5424h60.35456v-61.5424zM722.8416 880.72192h-60.17024V942.08h60.17024v-61.35808z" fill="#000002" p-id="3592"></path><path d="M722.8416 819.15904h-60.17024v61.56288h60.17024V819.2z" fill="#5C5C5E" p-id="3593"></path><path d="M722.8416 757.82144h-60.17024v61.35808h60.17024v-61.35808z" fill="#5C5C5E" p-id="3594"></path><path d="M722.8416 696.46336h-60.17024v61.35808h60.17024v-61.35808z" fill="#000002" p-id="3595"></path><path d="M722.8416 634.92096h-60.17024v61.5424h60.17024v-61.5424zM722.8416 573.5424h-60.17024v61.35808h60.17024v-61.35808z" fill="#5C5C5E" p-id="3596"></path><path d="M722.8416 512h-60.17024v61.56288h60.17024V512z" fill="#000002" p-id="3597"></path><path d="M722.8416 450.64192h-60.17024V512h60.17024v-61.35808zM722.8416 389.28384h-60.17024v61.35808h60.17024v-61.35808z" fill="#FFFFFF" p-id="3598"></path><path d="M722.8416 327.74144h-60.17024v61.56288h60.17024v-61.56288zM722.8416 266.38336h-60.17024v61.35808h60.17024v-61.35808z" fill="#FFFFFF" p-id="3599"></path><path d="M722.8416 204.84096h-60.17024v61.5424h60.17024v-61.5424z" fill="#FFFFFF" p-id="3600"></path><path d="M722.8416 143.48288h-60.17024V204.8h60.17024V143.48288zM662.69184 880.72192H602.3168V942.08h60.35456v-61.35808z" fill="#000002" p-id="3601"></path><path d="M662.69184 819.15904H602.3168v61.56288h60.35456V819.2z" fill="#5C5C5E" p-id="3602"></path><path d="M662.69184 757.82144H602.3168v61.35808h60.35456v-61.35808z" fill="#000002" p-id="3603"></path><path d="M662.69184 696.46336H602.3168v61.35808h60.35456v-61.35808zM662.69184 634.92096H602.3168v61.5424h60.35456v-61.5424z" fill="#5C5C5E" p-id="3604"></path><path d="M662.69184 573.5424H602.3168v61.35808h60.35456v-61.35808z" fill="#000002" p-id="3605"></path><path d="M662.69184 512H602.3168v61.56288h60.35456V512z" fill="#000002" p-id="3606"></path><path d="M662.69184 450.64192H602.3168V512h60.35456v-61.35808zM662.69184 389.28384H602.3168v61.35808h60.35456v-61.35808z" fill="#FFFFFF" p-id="3607"></path><path d="M662.69184 327.74144H602.3168v61.56288h60.35456v-61.56288zM662.69184 266.38336H602.3168v61.35808h60.35456v-61.35808z" fill="#FFFFFF" p-id="3608"></path><path d="M662.69184 204.84096H602.3168v61.5424h60.35456v-61.5424zM662.69184 143.48288H602.3168V204.8h60.35456V143.48288z" fill="#FFFFFF" p-id="3609"></path><path d="M662.69184 81.92H602.3168v61.56288h60.35456V81.92zM602.3168 880.72192h-60.14976V942.08h60.17024v-61.35808zM602.3168 819.15904h-60.14976v61.56288h60.17024V819.2z" fill="#000002" p-id="3610"></path><path d="M602.3168 757.82144h-60.14976v61.35808h60.17024v-61.35808zM602.3168 696.46336h-60.14976v61.35808h60.17024v-61.35808z" fill="#5C5C5E" p-id="3611"></path><path d="M602.3168 634.92096h-60.14976v61.5424h60.17024v-61.5424z" fill="#000002" p-id="3612"></path><path d="M602.3168 573.5424h-60.14976v61.35808h60.17024v-61.35808z" fill="#5C5C5E" p-id="3613"></path><path d="M602.3168 512h-60.14976v61.56288h60.17024V512z" fill="#000002" p-id="3614"></path><path d="M602.3168 450.64192h-60.14976V512h60.17024v-61.35808zM602.3168 389.28384h-60.14976v61.35808h60.17024v-61.35808z" fill="#FFFFFF" p-id="3615"></path><path d="M602.3168 327.74144h-60.14976v61.56288h60.17024v-61.56288zM602.3168 266.38336h-60.14976v61.35808h60.17024v-61.35808z" fill="#FFFFFF" p-id="3616"></path><path d="M602.3168 204.84096h-60.14976v61.5424h60.17024v-61.5424zM602.3168 143.48288h-60.14976V204.8h60.17024V143.48288z" fill="#FFFFFF" p-id="3617"></path><path d="M602.3168 81.92h-60.14976v61.56288h60.17024V81.92zM542.18752 880.72192h-60.17024V942.08h60.17024v-61.35808z" fill="#000002" p-id="3618"></path><path d="M542.18752 819.15904h-60.17024v61.56288h60.17024V819.2z" fill="#5C5C5E" p-id="3619"></path><path d="M542.18752 757.82144h-60.17024v61.35808h60.17024v-61.35808z" fill="#5C5C5E" p-id="3620"></path><path d="M542.18752 696.46336h-60.17024v61.35808h60.17024v-61.35808z" fill="#000002" p-id="3621"></path><path d="M542.18752 634.92096h-60.17024v61.5424h60.17024v-61.5424zM542.18752 573.5424h-60.17024v61.35808h60.17024v-61.35808z" fill="#5C5C5E" p-id="3622"></path><path d="M542.18752 512h-60.17024v61.56288h60.17024V512z" fill="#000002" p-id="3623"></path><path d="M542.18752 450.64192h-60.17024V512h60.17024v-61.35808zM542.18752 389.28384h-60.17024v61.35808h60.17024v-61.35808z" fill="#FFFFFF" p-id="3624"></path><path d="M542.18752 327.74144h-60.17024v61.56288h60.17024v-61.56288zM542.18752 266.38336h-60.17024v61.35808h60.17024v-61.35808z" fill="#FFFFFF" p-id="3625"></path><path d="M542.18752 204.84096h-60.17024v61.5424h60.17024v-61.5424zM542.18752 143.48288h-60.17024V204.8h60.17024V143.48288z" fill="#FFFFFF" p-id="3626"></path><path d="M542.18752 81.92h-60.17024v61.56288h60.17024V81.92zM482.01728 880.72192H421.6832V942.08h60.35456v-61.35808z" fill="#000002" p-id="3627"></path><path d="M482.01728 819.15904H421.6832v61.56288h60.35456V819.2z" fill="#5C5C5E" p-id="3628"></path><path d="M482.01728 757.82144H421.6832v61.35808h60.35456v-61.35808z" fill="#000002" p-id="3629"></path><path d="M482.01728 696.46336H421.6832v61.35808h60.35456v-61.35808zM482.01728 634.92096H421.6832v61.5424h60.35456v-61.5424z" fill="#5C5C5E" p-id="3630"></path><path d="M482.01728 573.5424H421.6832v61.35808h60.35456v-61.35808z" fill="#000002" p-id="3631"></path><path d="M482.01728 512H421.6832v61.56288h60.35456V512z" fill="#000002" p-id="3632"></path><path d="M482.01728 450.64192H421.6832V512h60.35456v-61.35808zM482.01728 389.28384H421.6832v61.35808h60.35456v-61.35808z" fill="#FFFFFF" p-id="3633"></path><path d="M482.01728 327.74144H421.6832v61.56288h60.35456v-61.56288zM482.01728 266.38336H421.6832v61.35808h60.35456v-61.35808z" fill="#FFFFFF" p-id="3634"></path><path d="M482.01728 204.84096H421.6832v61.5424h60.35456v-61.5424zM482.01728 143.48288H421.6832V204.8h60.35456V143.48288z" fill="#FFFFFF" p-id="3635"></path><path d="M482.01728 81.92H421.6832v61.56288h60.35456V81.92zM421.6832 880.72192h-60.17024V942.08h60.17024v-61.35808zM421.6832 819.15904h-60.17024v61.56288h60.17024V819.2z" fill="#000002" p-id="3636"></path><path d="M421.6832 757.82144h-60.17024v61.35808h60.17024v-61.35808zM421.6832 696.46336h-60.17024v61.35808h60.17024v-61.35808z" fill="#5C5C5E" p-id="3637"></path><path d="M421.6832 634.92096h-60.17024v61.5424h60.17024v-61.5424z" fill="#000002" p-id="3638"></path><path d="M421.6832 573.5424h-60.17024v61.35808h60.17024v-61.35808z" fill="#5C5C5E" p-id="3639"></path><path d="M421.6832 512h-60.17024v61.56288h60.17024V512z" fill="#000002" p-id="3640"></path><path d="M421.6832 450.64192h-60.17024V512h60.17024v-61.35808zM421.6832 389.28384h-60.17024v61.35808h60.17024v-61.35808z" fill="#FFFFFF" p-id="3641"></path><path d="M421.6832 327.74144h-60.17024v61.56288h60.17024v-61.56288zM421.6832 266.38336h-60.17024v61.35808h60.17024v-61.35808z" fill="#FFFFFF" p-id="3642"></path><path d="M421.6832 204.84096h-60.17024v61.5424h60.17024v-61.5424zM421.6832 143.48288h-60.17024V204.8h60.17024V143.48288z" fill="#FFFFFF" p-id="3643"></path><path d="M421.6832 81.92h-60.17024v61.56288h60.17024V81.92zM361.51296 880.72192h-60.35456V942.08h60.35456v-61.35808z" fill="#000002" p-id="3644"></path><path d="M361.51296 819.15904h-60.35456v61.56288h60.35456V819.2z" fill="#5C5C5E" p-id="3645"></path><path d="M361.51296 757.82144h-60.35456v61.35808h60.35456v-61.35808z" fill="#5C5C5E" p-id="3646"></path><path d="M361.51296 696.46336h-60.35456v61.35808h60.35456v-61.35808z" fill="#000002" p-id="3647"></path><path d="M361.51296 634.92096h-60.35456v61.5424h60.35456v-61.5424zM361.51296 573.5424h-60.35456v61.35808h60.35456v-61.35808z" fill="#5C5C5E" p-id="3648"></path><path d="M361.51296 512h-60.35456v61.56288h60.35456V512z" fill="#000002" p-id="3649"></path><path d="M361.51296 450.64192h-60.35456V512h60.35456v-61.35808zM361.51296 389.28384h-60.35456v61.35808h60.35456v-61.35808z" fill="#FFFFFF" p-id="3650"></path><path d="M361.51296 327.74144h-60.35456v61.56288h60.35456v-61.56288zM361.51296 266.38336h-60.35456v61.35808h60.35456v-61.35808z" fill="#FFFFFF" p-id="3651"></path><path d="M361.51296 204.84096h-60.35456v61.5424h60.35456v-61.5424z" fill="#FFFFFF" p-id="3652"></path><path d="M361.51296 143.48288h-60.35456V204.8h60.35456V143.48288zM301.1584 880.72192h-60.14976V942.08h60.14976v-61.35808zM301.1584 819.15904h-60.14976v61.56288h60.14976V819.2z" fill="#000002" p-id="3653"></path><path d="M301.1584 757.82144h-60.14976v61.35808h60.14976v-61.35808zM301.1584 696.46336h-60.14976v61.35808h60.14976v-61.35808zM301.1584 634.92096h-60.14976v61.5424h60.14976v-61.5424zM301.1584 573.5424h-60.14976v61.35808h60.14976v-61.35808z" fill="#000002" p-id="3654"></path><path d="M301.1584 512h-60.14976v61.56288h60.14976V512z" fill="#000002" p-id="3655"></path><path d="M301.1584 450.64192h-60.14976V512h60.14976v-61.35808zM301.1584 389.28384h-60.14976v61.35808h60.14976v-61.35808z" fill="#FFFFFF" p-id="3656"></path><path d="M301.1584 327.74144h-60.14976v61.56288h60.14976v-61.56288zM301.1584 266.38336h-60.14976v61.35808h60.14976v-61.35808z" fill="#FFFFFF" p-id="3657"></path><path d="M301.1584 204.84096h-60.14976v61.5424h60.14976v-61.5424zM241.00864 880.72192H180.85888V942.08h60.14976v-61.35808z" fill="#000002" p-id="3658"></path><path d="M241.00864 819.15904H180.85888v61.56288h60.14976V819.2z" fill="#FFFFFF" p-id="3659"></path><path d="M241.00864 757.82144H180.85888v61.35808h60.14976v-61.35808zM241.00864 696.46336H180.85888v61.35808h60.14976v-61.35808zM241.00864 634.92096H180.85888v61.5424h60.14976v-61.5424zM241.00864 573.5424H180.85888v61.35808h60.14976v-61.35808z" fill="#FFFFFF" p-id="3660"></path><path d="M241.00864 512H180.85888v61.56288h60.14976V512zM241.00864 450.64192H180.85888V512h60.14976v-61.35808zM241.00864 389.28384H180.85888v61.35808h60.14976v-61.35808z" fill="#FFFFFF" p-id="3661"></path><path d="M241.00864 327.74144H180.85888v61.56288h60.14976v-61.56288z" fill="#FFFFFF" p-id="3662"></path><path d="M241.00864 266.38336H180.85888v61.35808h60.14976v-61.35808zM180.85888 880.72192H120.50432V942.08h60.35456v-61.35808z" fill="#000002" p-id="3663"></path><path d="M180.85888 819.15904H120.50432v61.56288h60.35456V819.2z" fill="#FFFFFF" p-id="3664"></path><path d="M180.85888 757.82144H120.50432v61.35808h60.35456v-61.35808zM180.85888 696.46336H120.50432v61.35808h60.35456v-61.35808zM180.85888 634.92096H120.50432v61.5424h60.35456v-61.5424zM180.85888 573.5424H120.50432v61.35808h60.35456v-61.35808z" fill="#FFFFFF" p-id="3665"></path><path d="M180.85888 512H120.50432v61.56288h60.35456V512zM180.85888 450.64192H120.50432V512h60.35456v-61.35808z" fill="#FFFFFF" p-id="3666"></path><path d="M180.85888 389.28384H120.50432v61.35808h60.35456v-61.35808z" fill="#000002" p-id="3667"></path><path d="M180.85888 327.74144H120.50432v61.56288h60.35456v-61.56288zM120.50432 880.72192H60.35456V942.08h60.14976v-61.35808z" fill="#000002" p-id="3668"></path><path d="M120.50432 819.15904H60.35456v61.56288h60.14976V819.2z" fill="#FFFFFF" p-id="3669"></path><path d="M120.50432 757.82144H60.35456v61.35808h60.14976v-61.35808zM120.50432 696.46336H60.35456v61.35808h60.14976v-61.35808zM120.50432 634.92096H60.35456v61.5424h60.14976v-61.5424z" fill="#FFFFFF" p-id="3670"></path><path d="M120.50432 573.5424H60.35456v61.35808h60.14976v-61.35808z" fill="#000002" p-id="3671"></path><path d="M120.50432 512H60.35456v61.56288h60.14976V512zM120.50432 450.64192H60.35456V512h60.14976v-61.35808zM60.35456 819.15904H0v61.56288h60.35456V819.2z" fill="#000002" p-id="3672"></path><path d="M60.35456 757.82144H0v61.35808h60.35456v-61.35808zM60.35456 696.46336H0v61.35808h60.35456v-61.35808zM60.35456 634.92096H0v61.5424h60.35456v-61.5424z" fill="#000002" p-id="3673"></path></svg>